<svg viewBox="0 0 520 520"  xmlns="http://www.w3.org/2000/svg">
<g  transform="translate(0 0)">
<rect x="0.00" y="0.00" width="520.00" height="520.00" rx="0.00" ry="0.00"  fill="#FDF6E3"></rect>
<text x="260.00" y="16.00" font-size="13" font-family="Arial, sans-serif" font-weight="bold" fill="#657B83" text-anchor="start">language share (donut)</text>
<polygon points="260.00,56.00 281.18,57.04 302.15,60.13 322.72,65.26 342.69,72.37 361.88,81.40 380.09,92.26 397.15,104.84 412.91,119.02 427.20,134.68 439.90,151.66 450.88,169.79 460.04,188.91 467.30,208.83 472.57,229.37 475.81,250.32 476.99,271.49 476.11,292.67 473.16,313.66 468.17,334.27 461.20,354.29 452.31,373.54 441.58,391.82 429.12,408.97 415.04,424.83 399.48,439.23 382.60,452.05 364.54,463.16 317.50,377.59 327.43,371.48 336.72,364.43 345.27,356.50 353.01,347.79 359.87,338.35 365.77,328.29 370.66,317.71 374.49,306.70 377.24,295.36 378.86,283.82 379.35,272.17 378.70,260.52 376.91,249.00 374.01,237.71 370.02,226.75 364.99,216.23 358.95,206.26 351.96,196.92 344.10,188.31 335.43,180.51 326.05,173.59 316.03,167.62 305.48,162.66 294.50,158.74 283.18,155.92 271.65,154.22 260.00,153.65 260.00,56.00" fill="#268BD2" stroke="#268BD2" stroke-width="1.00"></polygon>
<text x="481.00" y="219.00" font-size="10" font-family="Arial, sans-serif" font-weight="normal" fill="#657B83" text-anchor="start">Rust</text>
<polygon points="364.54,463.16 345.49,472.45 325.61,479.84 305.12,485.26 284.19,488.65 263.03,489.98 241.84,489.24 220.83,486.43 200.19,481.59 180.12,474.76 160.81,466.00 142.45,455.40 125.21,443.06 109.26,429.10 94.75,413.64 81.81,396.84 70.58,378.87 61.15,359.88 53.62,340.06 146.49,309.88 150.63,320.78 155.82,331.23 162.00,341.11 169.11,350.35 177.09,358.85 185.87,366.53 195.35,373.32 205.45,379.15 216.06,383.97 227.10,387.73 238.46,390.39 250.01,391.93 261.67,392.34 273.30,391.61 284.81,389.74 296.09,386.76 307.02,382.70 317.50,377.59 364.54,463.16" fill="#859900" stroke="#859900" stroke-width="1.00"></polygon>
<text x="175.00" y="488.00" font-size="10" font-family="Arial, sans-serif" font-weight="normal" fill="#657B83" text-anchor="start">C++</text>
<polygon points="53.62,340.06 48.06,319.60 44.53,298.69 43.05,277.54 43.64,256.35 46.30,235.32 50.99,214.64 57.69,194.53 66.31,175.16 76.78,156.73 159.23,209.05 153.47,219.19 148.73,229.84 145.05,240.90 142.46,252.28 141.00,263.84 140.68,275.50 141.49,287.13 143.43,298.63 146.49,309.88 53.62,340.06" fill="#B58900" stroke="#B58900" stroke-width="1.00"></polygon>
<text x="32.00" y="247.00" font-size="10" font-family="Arial, sans-serif" font-weight="normal" fill="#657B83" text-anchor="start">Kotlin</text>
<polygon points="76.78,156.73 87.94,140.77 100.49,125.88 114.32,112.17 129.32,99.76 145.37,88.74 162.35,79.21 180.12,71.24 216.06,162.03 206.29,166.42 196.96,171.66 188.13,177.72 179.87,184.54 172.27,192.08 165.37,200.27 159.23,209.05 76.78,156.73" fill="#CB4B16" stroke="#CB4B16" stroke-width="1.00"></polygon>
<text x="114.00" y="99.00" font-size="10" font-family="Arial, sans-serif" font-weight="normal" fill="#657B83" text-anchor="start">Python</text>
<polygon points="180.12,71.24 199.46,64.62 219.34,59.84 239.58,56.96 260.00,56.00 260.00,153.65 248.77,154.18 237.64,155.76 226.70,158.39 216.06,162.03 180.12,71.24" fill="#DC322F" stroke="#DC322F" stroke-width="1.00"></polygon>
<text x="217.00" y="51.00" font-size="10" font-family="Arial, sans-serif" font-weight="normal" fill="#657B83" text-anchor="start">Other</text>
</g>
</svg>
