<svg viewBox="0 0 640 400"  xmlns="http://www.w3.org/2000/svg">
<g  transform="translate(0 0)">
<rect x="0.00" y="0.00" width="640.00" height="400.00" rx="0.00" ry="0.00"  fill="#002B36"></rect>
<rect x="56.00" y="34.00" width="559.80" height="322.00" rx="2.00" ry="2.00"  fill="#073642"></rect>
<line x1="95.99" y1="34.00" x2="95.99" y2="356.00" stroke="#586E75" stroke-width="0.50"/>
<text x="95.00" y="370.00" font-size="9" font-family="Ubuntu Mono, monospace" font-weight="normal" fill="#839496" text-anchor="start">Mon</text>
<line x1="175.96" y1="34.00" x2="175.96" y2="356.00" stroke="#586E75" stroke-width="0.50"/>
<text x="175.00" y="370.00" font-size="9" font-family="Ubuntu Mono, monospace" font-weight="normal" fill="#839496" text-anchor="start">Tue</text>
<line x1="255.93" y1="34.00" x2="255.93" y2="356.00" stroke="#586E75" stroke-width="0.50"/>
<text x="255.00" y="370.00" font-size="9" font-family="Ubuntu Mono, monospace" font-weight="normal" fill="#839496" text-anchor="start">Wed</text>
<line x1="335.90" y1="34.00" x2="335.90" y2="356.00" stroke="#586E75" stroke-width="0.50"/>
<text x="335.00" y="370.00" font-size="9" font-family="Ubuntu Mono, monospace" font-weight="normal" fill="#839496" text-anchor="start">Thu</text>
<line x1="415.87" y1="34.00" x2="415.87" y2="356.00" stroke="#586E75" stroke-width="0.50"/>
<text x="415.00" y="370.00" font-size="9" font-family="Ubuntu Mono, monospace" font-weight="normal" fill="#839496" text-anchor="start">Fri</text>
<line x1="495.84" y1="34.00" x2="495.84" y2="356.00" stroke="#586E75" stroke-width="0.50"/>
<text x="495.00" y="370.00" font-size="9" font-family="Ubuntu Mono, monospace" font-weight="normal" fill="#839496" text-anchor="start">Sat</text>
<line x1="575.81" y1="34.00" x2="575.81" y2="356.00" stroke="#586E75" stroke-width="0.50"/>
<text x="575.00" y="370.00" font-size="9" font-family="Ubuntu Mono, monospace" font-weight="normal" fill="#839496" text-anchor="start">Sun</text>
<line x1="56.00" y1="356.00" x2="615.80" y2="356.00" stroke="#586E75" stroke-width="0.50"/>
<text x="36.00" y="359.00" font-size="9" font-family="Ubuntu Mono, monospace" font-weight="normal" fill="#839496" text-anchor="start">0</text>
<line x1="56.00" y1="302.33" x2="615.80" y2="302.33" stroke="#586E75" stroke-width="0.50"/>
<text x="36.00" y="305.00" font-size="9" font-family="Ubuntu Mono, monospace" font-weight="normal" fill="#839496" text-anchor="start">5</text>
<line x1="56.00" y1="248.67" x2="615.80" y2="248.67" stroke="#586E75" stroke-width="0.50"/>
<text x="31.00" y="251.00" font-size="9" font-family="Ubuntu Mono, monospace" font-weight="normal" fill="#839496" text-anchor="start">10</text>
<line x1="56.00" y1="195.00" x2="615.80" y2="195.00" stroke="#586E75" stroke-width="0.50"/>
<text x="31.00" y="198.00" font-size="9" font-family="Ubuntu Mono, monospace" font-weight="normal" fill="#839496" text-anchor="start">15</text>
<line x1="56.00" y1="141.33" x2="615.80" y2="141.33" stroke="#586E75" stroke-width="0.50"/>
<text x="31.00" y="144.00" font-size="9" font-family="Ubuntu Mono, monospace" font-weight="normal" fill="#839496" text-anchor="start">20</text>
<line x1="56.00" y1="87.67" x2="615.80" y2="87.67" stroke="#586E75" stroke-width="0.50"/>
<text x="31.00" y="90.00" font-size="9" font-family="Ubuntu Mono, monospace" font-weight="normal" fill="#839496" text-anchor="start">25</text>
<line x1="56.00" y1="34.00" x2="615.80" y2="34.00" stroke="#586E75" stroke-width="0.50"/>
<text x="31.00" y="37.00" font-size="9" font-family="Ubuntu Mono, monospace" font-weight="normal" fill="#839496" text-anchor="start">30</text>
<line x1="56.00" y1="34.00" x2="56.00" y2="356.00" stroke="#586E75" stroke-width="1.20"/>
<line x1="56.00" y1="356.00" x2="615.80" y2="356.00" stroke="#586E75" stroke-width="1.20"/>
<text x="335.00" y="18.00" font-size="13" font-family="Arial, sans-serif" font-weight="bold" fill="#839496" text-anchor="start">weekly sales</text>
<text x="335.00" y="392.00" font-size="10" font-family="Arial, sans-serif" font-weight="normal" fill="#839496" text-anchor="start">day</text>
<text x="14.00" y="195.00" font-size="10" font-family="Arial, sans-serif" font-weight="normal" fill="#839496" transform=" rotate(270 14 195)" text-anchor="start">units</text>
<rect x="68.00" y="227.20" width="55.98" height="128.80" rx="0.00" ry="0.00"  fill="#268BD2"></rect>
<rect x="147.97" y="152.07" width="55.98" height="203.93" rx="0.00" ry="0.00"  fill="#859900"></rect>
<rect x="227.94" y="280.87" width="55.98" height="75.13" rx="0.00" ry="0.00"  fill="#B58900"></rect>
<rect x="307.91" y="119.87" width="55.98" height="236.13" rx="0.00" ry="0.00"  fill="#CB4B16"></rect>
<rect x="387.88" y="34.00" width="55.98" height="322.00" rx="0.00" ry="0.00"  fill="#DC322F"></rect>
<rect x="467.85" y="87.67" width="55.98" height="268.33" rx="0.00" ry="0.00"  fill="#D33682"></rect>
<rect x="547.82" y="205.73" width="55.98" height="150.27" rx="0.00" ry="0.00"  fill="#6C71C4"></rect>
</g>
</svg>
